<mxfile host="app.diagrams.net" agent="Mozilla/5.0 (Macintosh; Intel Mac OS X 10_15_7) AppleWebKit/537.36 (KHTML, like Gecko) Chrome/132.0.0.0 Safari/537.36" version="26.0.6">
  <diagram name="第 1 页" id="lK4b7JDRvBtxCrFtynsC">
    <mxGraphModel dx="896" dy="476" grid="1" gridSize="10" guides="1" tooltips="1" connect="1" arrows="1" fold="1" page="1" pageScale="1" pageWidth="827" pageHeight="1169" math="0" shadow="0">
      <root>
        <mxCell id="0" />
        <mxCell id="1" parent="0" />
        <mxCell id="GL996E9YZMnouKgxVXlB-8" style="edgeStyle=orthogonalEdgeStyle;rounded=0;orthogonalLoop=1;jettySize=auto;html=1;exitX=0.5;exitY=1;exitDx=0;exitDy=0;endArrow=none;endFill=0;" edge="1" parent="1" source="GL996E9YZMnouKgxVXlB-4">
          <mxGeometry relative="1" as="geometry">
            <mxPoint x="148" y="1400" as="targetPoint" />
          </mxGeometry>
        </mxCell>
        <mxCell id="GL996E9YZMnouKgxVXlB-9" style="edgeStyle=orthogonalEdgeStyle;rounded=0;orthogonalLoop=1;jettySize=auto;html=1;strokeColor=default;dashed=1;startArrow=none;startFill=0;endArrow=none;endFill=0;" edge="1" parent="1" source="GL996E9YZMnouKgxVXlB-4">
          <mxGeometry relative="1" as="geometry">
            <mxPoint x="100" y="720" as="targetPoint" />
            <Array as="points">
              <mxPoint x="60" y="55" />
              <mxPoint x="60" y="720" />
            </Array>
          </mxGeometry>
        </mxCell>
        <mxCell id="GL996E9YZMnouKgxVXlB-10" value="A系统引发登陆" style="edgeLabel;html=1;align=center;verticalAlign=middle;resizable=0;points=[];" vertex="1" connectable="0" parent="GL996E9YZMnouKgxVXlB-9">
          <mxGeometry x="-0.0552" y="-1" relative="1" as="geometry">
            <mxPoint y="3" as="offset" />
          </mxGeometry>
        </mxCell>
        <mxCell id="GL996E9YZMnouKgxVXlB-4" value="浏览器" style="rounded=1;whiteSpace=wrap;html=1;" vertex="1" parent="1">
          <mxGeometry x="103" y="40" width="90" height="30" as="geometry" />
        </mxCell>
        <mxCell id="GL996E9YZMnouKgxVXlB-13" style="edgeStyle=orthogonalEdgeStyle;rounded=0;orthogonalLoop=1;jettySize=auto;html=1;endArrow=none;endFill=0;" edge="1" parent="1" source="GL996E9YZMnouKgxVXlB-5">
          <mxGeometry relative="1" as="geometry">
            <mxPoint x="372" y="1400" as="targetPoint" />
            <Array as="points">
              <mxPoint x="372" y="720" />
              <mxPoint x="372" y="720" />
              <mxPoint x="372" y="1078" />
            </Array>
          </mxGeometry>
        </mxCell>
        <mxCell id="GL996E9YZMnouKgxVXlB-5" value="系统A" style="rounded=1;whiteSpace=wrap;html=1;" vertex="1" parent="1">
          <mxGeometry x="326.5" y="40" width="90" height="30" as="geometry" />
        </mxCell>
        <mxCell id="GL996E9YZMnouKgxVXlB-19" style="edgeStyle=orthogonalEdgeStyle;rounded=0;orthogonalLoop=1;jettySize=auto;html=1;endArrow=none;endFill=0;" edge="1" parent="1" source="GL996E9YZMnouKgxVXlB-6">
          <mxGeometry relative="1" as="geometry">
            <mxPoint x="588" y="1400" as="targetPoint" />
          </mxGeometry>
        </mxCell>
        <mxCell id="GL996E9YZMnouKgxVXlB-6" value="系统B" style="rounded=1;whiteSpace=wrap;html=1;" vertex="1" parent="1">
          <mxGeometry x="543" y="40" width="90" height="30" as="geometry" />
        </mxCell>
        <mxCell id="GL996E9YZMnouKgxVXlB-22" style="edgeStyle=orthogonalEdgeStyle;rounded=0;orthogonalLoop=1;jettySize=auto;html=1;" edge="1" parent="1" source="GL996E9YZMnouKgxVXlB-7">
          <mxGeometry relative="1" as="geometry">
            <mxPoint x="808" y="1474" as="targetPoint" />
          </mxGeometry>
        </mxCell>
        <mxCell id="GL996E9YZMnouKgxVXlB-7" value="SSO" style="rounded=1;whiteSpace=wrap;html=1;" vertex="1" parent="1">
          <mxGeometry x="763" y="40" width="90" height="30" as="geometry" />
        </mxCell>
        <mxCell id="GL996E9YZMnouKgxVXlB-11" value="" style="endArrow=classic;html=1;rounded=0;" edge="1" parent="1">
          <mxGeometry width="50" height="50" relative="1" as="geometry">
            <mxPoint x="148" y="130" as="sourcePoint" />
            <mxPoint x="370" y="130" as="targetPoint" />
          </mxGeometry>
        </mxCell>
        <mxCell id="GL996E9YZMnouKgxVXlB-12" value="访问系统A" style="edgeLabel;html=1;align=center;verticalAlign=middle;resizable=0;points=[];" vertex="1" connectable="0" parent="GL996E9YZMnouKgxVXlB-11">
          <mxGeometry x="-0.3204" y="-1" relative="1" as="geometry">
            <mxPoint x="32" y="-1" as="offset" />
          </mxGeometry>
        </mxCell>
        <mxCell id="GL996E9YZMnouKgxVXlB-14" value="" style="endArrow=classic;html=1;rounded=0;dashed=1;dashPattern=8 8;" edge="1" parent="1">
          <mxGeometry width="50" height="50" relative="1" as="geometry">
            <mxPoint x="370" y="173" as="sourcePoint" />
            <mxPoint x="150" y="173" as="targetPoint" />
          </mxGeometry>
        </mxCell>
        <mxCell id="GL996E9YZMnouKgxVXlB-15" value="重定向到 SSO" style="edgeLabel;html=1;align=center;verticalAlign=middle;resizable=0;points=[];" vertex="1" connectable="0" parent="GL996E9YZMnouKgxVXlB-14">
          <mxGeometry x="-0.3204" y="-1" relative="1" as="geometry">
            <mxPoint x="-35" as="offset" />
          </mxGeometry>
        </mxCell>
        <mxCell id="GL996E9YZMnouKgxVXlB-16" value="" style="endArrow=classic;html=1;rounded=0;" edge="1" parent="1">
          <mxGeometry width="50" height="50" relative="1" as="geometry">
            <mxPoint x="380" y="140" as="sourcePoint" />
            <mxPoint x="380" y="167" as="targetPoint" />
            <Array as="points">
              <mxPoint x="410" y="140" />
              <mxPoint x="410" y="157" />
              <mxPoint x="410" y="167" />
              <mxPoint x="400" y="167" />
            </Array>
          </mxGeometry>
        </mxCell>
        <mxCell id="GL996E9YZMnouKgxVXlB-17" value="Session 失效，需要登录" style="edgeLabel;html=1;align=center;verticalAlign=middle;resizable=0;points=[];" vertex="1" connectable="0" parent="GL996E9YZMnouKgxVXlB-16">
          <mxGeometry x="-0.0168" y="-1" relative="1" as="geometry">
            <mxPoint x="70" as="offset" />
          </mxGeometry>
        </mxCell>
        <mxCell id="GL996E9YZMnouKgxVXlB-20" value="" style="endArrow=classic;html=1;rounded=0;" edge="1" parent="1">
          <mxGeometry width="50" height="50" relative="1" as="geometry">
            <mxPoint x="148" y="230" as="sourcePoint" />
            <mxPoint x="806" y="230" as="targetPoint" />
          </mxGeometry>
        </mxCell>
        <mxCell id="GL996E9YZMnouKgxVXlB-21" value="访问 SSO，无 Cookie" style="edgeLabel;html=1;align=center;verticalAlign=middle;resizable=0;points=[];" vertex="1" connectable="0" parent="GL996E9YZMnouKgxVXlB-20">
          <mxGeometry x="-0.3204" y="-1" relative="1" as="geometry">
            <mxPoint x="-110" y="-2" as="offset" />
          </mxGeometry>
        </mxCell>
        <mxCell id="GL996E9YZMnouKgxVXlB-23" value="" style="endArrow=classic;html=1;rounded=0;" edge="1" parent="1">
          <mxGeometry width="50" height="50" relative="1" as="geometry">
            <mxPoint x="820" y="240" as="sourcePoint" />
            <mxPoint x="820" y="264" as="targetPoint" />
            <Array as="points">
              <mxPoint x="850" y="240" />
              <mxPoint x="850" y="257" />
              <mxPoint x="850" y="264" />
              <mxPoint x="840" y="264" />
            </Array>
          </mxGeometry>
        </mxCell>
        <mxCell id="GL996E9YZMnouKgxVXlB-24" value="Cookie 失效" style="edgeLabel;html=1;align=center;verticalAlign=middle;resizable=0;points=[];" vertex="1" connectable="0" parent="GL996E9YZMnouKgxVXlB-23">
          <mxGeometry x="-0.0168" y="-1" relative="1" as="geometry">
            <mxPoint x="39" as="offset" />
          </mxGeometry>
        </mxCell>
        <mxCell id="GL996E9YZMnouKgxVXlB-25" value="" style="endArrow=classic;html=1;rounded=0;dashed=1;dashPattern=8 8;" edge="1" parent="1">
          <mxGeometry width="50" height="50" relative="1" as="geometry">
            <mxPoint x="808" y="269" as="sourcePoint" />
            <mxPoint x="148" y="269" as="targetPoint" />
          </mxGeometry>
        </mxCell>
        <mxCell id="GL996E9YZMnouKgxVXlB-26" value="需要登录" style="edgeLabel;html=1;align=center;verticalAlign=middle;resizable=0;points=[];" vertex="1" connectable="0" parent="GL996E9YZMnouKgxVXlB-25">
          <mxGeometry x="-0.3204" y="-1" relative="1" as="geometry">
            <mxPoint x="-324" as="offset" />
          </mxGeometry>
        </mxCell>
        <mxCell id="GL996E9YZMnouKgxVXlB-27" value="" style="endArrow=classic;html=1;rounded=0;" edge="1" parent="1">
          <mxGeometry width="50" height="50" relative="1" as="geometry">
            <mxPoint x="148" y="329" as="sourcePoint" />
            <mxPoint x="806" y="329" as="targetPoint" />
          </mxGeometry>
        </mxCell>
        <mxCell id="GL996E9YZMnouKgxVXlB-28" value="输入账号密码" style="edgeLabel;html=1;align=center;verticalAlign=middle;resizable=0;points=[];" vertex="1" connectable="0" parent="GL996E9YZMnouKgxVXlB-27">
          <mxGeometry x="-0.3204" y="-1" relative="1" as="geometry">
            <mxPoint x="-112" y="-1" as="offset" />
          </mxGeometry>
        </mxCell>
        <mxCell id="GL996E9YZMnouKgxVXlB-29" value="" style="endArrow=classic;html=1;rounded=0;dashed=1;dashPattern=8 8;" edge="1" parent="1">
          <mxGeometry width="50" height="50" relative="1" as="geometry">
            <mxPoint x="808" y="371" as="sourcePoint" />
            <mxPoint x="148" y="371" as="targetPoint" />
          </mxGeometry>
        </mxCell>
        <mxCell id="GL996E9YZMnouKgxVXlB-30" value="URL 带 code 重定向到系统A Callback&lt;div&gt;种 SSO 域 Cookie&lt;/div&gt;" style="edgeLabel;html=1;align=center;verticalAlign=middle;resizable=0;points=[];" vertex="1" connectable="0" parent="GL996E9YZMnouKgxVXlB-29">
          <mxGeometry x="-0.3204" y="-1" relative="1" as="geometry">
            <mxPoint x="-325" y="1" as="offset" />
          </mxGeometry>
        </mxCell>
        <mxCell id="GL996E9YZMnouKgxVXlB-31" value="" style="endArrow=classic;html=1;rounded=0;" edge="1" parent="1">
          <mxGeometry width="50" height="50" relative="1" as="geometry">
            <mxPoint x="823" y="341" as="sourcePoint" />
            <mxPoint x="823" y="364" as="targetPoint" />
            <Array as="points">
              <mxPoint x="853" y="341" />
              <mxPoint x="853" y="358" />
              <mxPoint x="853" y="364" />
              <mxPoint x="850" y="364" />
              <mxPoint x="843" y="364" />
            </Array>
          </mxGeometry>
        </mxCell>
        <mxCell id="GL996E9YZMnouKgxVXlB-32" value="校验用户名密码" style="edgeLabel;html=1;align=center;verticalAlign=middle;resizable=0;points=[];" vertex="1" connectable="0" parent="GL996E9YZMnouKgxVXlB-31">
          <mxGeometry x="-0.0168" y="-1" relative="1" as="geometry">
            <mxPoint x="48" as="offset" />
          </mxGeometry>
        </mxCell>
        <mxCell id="GL996E9YZMnouKgxVXlB-33" value="" style="endArrow=classic;html=1;rounded=0;" edge="1" parent="1">
          <mxGeometry width="50" height="50" relative="1" as="geometry">
            <mxPoint x="148" y="761" as="sourcePoint" />
            <mxPoint x="583" y="760" as="targetPoint" />
          </mxGeometry>
        </mxCell>
        <mxCell id="GL996E9YZMnouKgxVXlB-61" value="访问系统B" style="edgeLabel;html=1;align=center;verticalAlign=middle;resizable=0;points=[];" vertex="1" connectable="0" parent="GL996E9YZMnouKgxVXlB-33">
          <mxGeometry x="-0.5172" relative="1" as="geometry">
            <mxPoint x="227" as="offset" />
          </mxGeometry>
        </mxCell>
        <mxCell id="GL996E9YZMnouKgxVXlB-35" value="" style="endArrow=classic;html=1;rounded=0;dashed=1;dashPattern=8 8;" edge="1" parent="1">
          <mxGeometry width="50" height="50" relative="1" as="geometry">
            <mxPoint x="583" y="805" as="sourcePoint" />
            <mxPoint x="151" y="805" as="targetPoint" />
          </mxGeometry>
        </mxCell>
        <mxCell id="GL996E9YZMnouKgxVXlB-36" value="需要登录" style="edgeLabel;html=1;align=center;verticalAlign=middle;resizable=0;points=[];" vertex="1" connectable="0" parent="GL996E9YZMnouKgxVXlB-35">
          <mxGeometry x="-0.3204" y="-1" relative="1" as="geometry">
            <mxPoint x="46" y="1" as="offset" />
          </mxGeometry>
        </mxCell>
        <mxCell id="GL996E9YZMnouKgxVXlB-37" value="" style="endArrow=classic;html=1;rounded=0;" edge="1" parent="1">
          <mxGeometry width="50" height="50" relative="1" as="geometry">
            <mxPoint x="148" y="433" as="sourcePoint" />
            <mxPoint x="370" y="433" as="targetPoint" />
          </mxGeometry>
        </mxCell>
        <mxCell id="GL996E9YZMnouKgxVXlB-38" value="访问系统A Callback，带 code" style="edgeLabel;html=1;align=center;verticalAlign=middle;resizable=0;points=[];" vertex="1" connectable="0" parent="GL996E9YZMnouKgxVXlB-37">
          <mxGeometry x="-0.3204" y="-1" relative="1" as="geometry">
            <mxPoint x="32" y="-1" as="offset" />
          </mxGeometry>
        </mxCell>
        <mxCell id="GL996E9YZMnouKgxVXlB-39" value="" style="endArrow=classic;html=1;rounded=0;" edge="1" parent="1">
          <mxGeometry width="50" height="50" relative="1" as="geometry">
            <mxPoint x="372" y="450" as="sourcePoint" />
            <mxPoint x="804" y="450" as="targetPoint" />
          </mxGeometry>
        </mxCell>
        <mxCell id="GL996E9YZMnouKgxVXlB-40" value="校验 code" style="edgeLabel;html=1;align=center;verticalAlign=middle;resizable=0;points=[];" vertex="1" connectable="0" parent="GL996E9YZMnouKgxVXlB-39">
          <mxGeometry x="-0.3204" y="-1" relative="1" as="geometry">
            <mxPoint x="-33" y="-1" as="offset" />
          </mxGeometry>
        </mxCell>
        <mxCell id="GL996E9YZMnouKgxVXlB-41" value="" style="endArrow=classic;html=1;rounded=0;dashed=1;dashPattern=8 8;" edge="1" parent="1">
          <mxGeometry width="50" height="50" relative="1" as="geometry">
            <mxPoint x="808" y="485" as="sourcePoint" />
            <mxPoint x="376" y="485" as="targetPoint" />
          </mxGeometry>
        </mxCell>
        <mxCell id="GL996E9YZMnouKgxVXlB-42" value="换取 ticket" style="edgeLabel;html=1;align=center;verticalAlign=middle;resizable=0;points=[];" vertex="1" connectable="0" parent="GL996E9YZMnouKgxVXlB-41">
          <mxGeometry x="-0.3204" y="-1" relative="1" as="geometry">
            <mxPoint x="-175" as="offset" />
          </mxGeometry>
        </mxCell>
        <mxCell id="GL996E9YZMnouKgxVXlB-43" value="" style="endArrow=classic;html=1;rounded=0;dashed=1;dashPattern=8 8;" edge="1" parent="1">
          <mxGeometry width="50" height="50" relative="1" as="geometry">
            <mxPoint x="370" y="510" as="sourcePoint" />
            <mxPoint x="150" y="510" as="targetPoint" />
          </mxGeometry>
        </mxCell>
        <mxCell id="GL996E9YZMnouKgxVXlB-44" value="重定向到系统A页面&lt;div&gt;种A域 cookie（ticket）&lt;/div&gt;" style="edgeLabel;html=1;align=center;verticalAlign=middle;resizable=0;points=[];" vertex="1" connectable="0" parent="GL996E9YZMnouKgxVXlB-43">
          <mxGeometry x="-0.3204" y="-1" relative="1" as="geometry">
            <mxPoint x="-38" as="offset" />
          </mxGeometry>
        </mxCell>
        <mxCell id="GL996E9YZMnouKgxVXlB-45" value="" style="endArrow=classic;html=1;rounded=0;" edge="1" parent="1">
          <mxGeometry width="50" height="50" relative="1" as="geometry">
            <mxPoint x="823" y="458" as="sourcePoint" />
            <mxPoint x="823" y="481" as="targetPoint" />
            <Array as="points">
              <mxPoint x="853" y="458" />
              <mxPoint x="853" y="475" />
              <mxPoint x="853" y="481" />
              <mxPoint x="850" y="481" />
              <mxPoint x="843" y="481" />
            </Array>
          </mxGeometry>
        </mxCell>
        <mxCell id="GL996E9YZMnouKgxVXlB-46" value="校验 code 通过" style="edgeLabel;html=1;align=center;verticalAlign=middle;resizable=0;points=[];" vertex="1" connectable="0" parent="GL996E9YZMnouKgxVXlB-45">
          <mxGeometry x="-0.0168" y="-1" relative="1" as="geometry">
            <mxPoint x="48" as="offset" />
          </mxGeometry>
        </mxCell>
        <mxCell id="GL996E9YZMnouKgxVXlB-47" value="" style="endArrow=classic;html=1;rounded=0;" edge="1" parent="1">
          <mxGeometry width="50" height="50" relative="1" as="geometry">
            <mxPoint x="148" y="570" as="sourcePoint" />
            <mxPoint x="370" y="570" as="targetPoint" />
          </mxGeometry>
        </mxCell>
        <mxCell id="GL996E9YZMnouKgxVXlB-48" value="访问系统A，带 A 域 cookie（ticket）" style="edgeLabel;html=1;align=center;verticalAlign=middle;resizable=0;points=[];" vertex="1" connectable="0" parent="GL996E9YZMnouKgxVXlB-47">
          <mxGeometry x="-0.3204" y="-1" relative="1" as="geometry">
            <mxPoint x="32" y="-1" as="offset" />
          </mxGeometry>
        </mxCell>
        <mxCell id="GL996E9YZMnouKgxVXlB-49" value="" style="endArrow=classic;html=1;rounded=0;" edge="1" parent="1">
          <mxGeometry width="50" height="50" relative="1" as="geometry">
            <mxPoint x="372" y="585" as="sourcePoint" />
            <mxPoint x="804" y="585" as="targetPoint" />
          </mxGeometry>
        </mxCell>
        <mxCell id="GL996E9YZMnouKgxVXlB-50" value="校验 ticket" style="edgeLabel;html=1;align=center;verticalAlign=middle;resizable=0;points=[];" vertex="1" connectable="0" parent="GL996E9YZMnouKgxVXlB-49">
          <mxGeometry x="-0.3204" y="-1" relative="1" as="geometry">
            <mxPoint x="-33" y="-1" as="offset" />
          </mxGeometry>
        </mxCell>
        <mxCell id="GL996E9YZMnouKgxVXlB-51" value="" style="endArrow=classic;html=1;rounded=0;dashed=1;dashPattern=8 8;" edge="1" parent="1">
          <mxGeometry width="50" height="50" relative="1" as="geometry">
            <mxPoint x="808" y="620" as="sourcePoint" />
            <mxPoint x="376" y="620" as="targetPoint" />
          </mxGeometry>
        </mxCell>
        <mxCell id="GL996E9YZMnouKgxVXlB-53" value="" style="endArrow=classic;html=1;rounded=0;" edge="1" parent="1">
          <mxGeometry width="50" height="50" relative="1" as="geometry">
            <mxPoint x="823" y="593" as="sourcePoint" />
            <mxPoint x="823" y="616" as="targetPoint" />
            <Array as="points">
              <mxPoint x="853" y="593" />
              <mxPoint x="853" y="610" />
              <mxPoint x="853" y="616" />
              <mxPoint x="850" y="616" />
              <mxPoint x="843" y="616" />
            </Array>
          </mxGeometry>
        </mxCell>
        <mxCell id="GL996E9YZMnouKgxVXlB-54" value="校验 ticket 通过" style="edgeLabel;html=1;align=center;verticalAlign=middle;resizable=0;points=[];" vertex="1" connectable="0" parent="GL996E9YZMnouKgxVXlB-53">
          <mxGeometry x="-0.0168" y="-1" relative="1" as="geometry">
            <mxPoint x="48" as="offset" />
          </mxGeometry>
        </mxCell>
        <mxCell id="GL996E9YZMnouKgxVXlB-55" value="" style="endArrow=classic;html=1;rounded=0;" edge="1" parent="1">
          <mxGeometry width="50" height="50" relative="1" as="geometry">
            <mxPoint x="378" y="635" as="sourcePoint" />
            <mxPoint x="378" y="675" as="targetPoint" />
            <Array as="points">
              <mxPoint x="398" y="635" />
              <mxPoint x="398" y="655" />
              <mxPoint x="398" y="675" />
            </Array>
          </mxGeometry>
        </mxCell>
        <mxCell id="GL996E9YZMnouKgxVXlB-56" value="凭证有效，处理业务" style="edgeLabel;html=1;align=center;verticalAlign=middle;resizable=0;points=[];" vertex="1" connectable="0" parent="GL996E9YZMnouKgxVXlB-55">
          <mxGeometry x="-0.0168" y="-1" relative="1" as="geometry">
            <mxPoint x="58" as="offset" />
          </mxGeometry>
        </mxCell>
        <mxCell id="GL996E9YZMnouKgxVXlB-57" value="" style="endArrow=classic;html=1;rounded=0;dashed=1;dashPattern=8 8;" edge="1" parent="1">
          <mxGeometry width="50" height="50" relative="1" as="geometry">
            <mxPoint x="370" y="692" as="sourcePoint" />
            <mxPoint x="150" y="692" as="targetPoint" />
          </mxGeometry>
        </mxCell>
        <mxCell id="GL996E9YZMnouKgxVXlB-58" value="业务返回" style="edgeLabel;html=1;align=center;verticalAlign=middle;resizable=0;points=[];" vertex="1" connectable="0" parent="GL996E9YZMnouKgxVXlB-57">
          <mxGeometry x="-0.3204" y="-1" relative="1" as="geometry">
            <mxPoint x="-40" as="offset" />
          </mxGeometry>
        </mxCell>
        <mxCell id="GL996E9YZMnouKgxVXlB-59" style="edgeStyle=orthogonalEdgeStyle;rounded=0;orthogonalLoop=1;jettySize=auto;html=1;strokeColor=default;dashed=1;startArrow=none;startFill=0;endArrow=none;endFill=0;" edge="1" parent="1">
          <mxGeometry relative="1" as="geometry">
            <mxPoint x="100" y="1398" as="targetPoint" />
            <mxPoint x="100" y="733" as="sourcePoint" />
            <Array as="points">
              <mxPoint x="60" y="733" />
              <mxPoint x="60" y="1398" />
            </Array>
          </mxGeometry>
        </mxCell>
        <mxCell id="GL996E9YZMnouKgxVXlB-60" value="B系统无须登陆" style="edgeLabel;html=1;align=center;verticalAlign=middle;resizable=0;points=[];" vertex="1" connectable="0" parent="GL996E9YZMnouKgxVXlB-59">
          <mxGeometry x="-0.0552" y="-1" relative="1" as="geometry">
            <mxPoint y="3" as="offset" />
          </mxGeometry>
        </mxCell>
        <mxCell id="GL996E9YZMnouKgxVXlB-62" value="" style="endArrow=classic;html=1;rounded=0;" edge="1" parent="1">
          <mxGeometry width="50" height="50" relative="1" as="geometry">
            <mxPoint x="603" y="770" as="sourcePoint" />
            <mxPoint x="603" y="797" as="targetPoint" />
            <Array as="points">
              <mxPoint x="633" y="770" />
              <mxPoint x="633" y="787" />
              <mxPoint x="633" y="797" />
              <mxPoint x="623" y="797" />
            </Array>
          </mxGeometry>
        </mxCell>
        <mxCell id="GL996E9YZMnouKgxVXlB-63" value="Session 失效，需要登录" style="edgeLabel;html=1;align=center;verticalAlign=middle;resizable=0;points=[];" vertex="1" connectable="0" parent="GL996E9YZMnouKgxVXlB-62">
          <mxGeometry x="-0.0168" y="-1" relative="1" as="geometry">
            <mxPoint x="70" as="offset" />
          </mxGeometry>
        </mxCell>
        <mxCell id="GL996E9YZMnouKgxVXlB-66" value="" style="endArrow=classic;html=1;rounded=0;" edge="1" parent="1">
          <mxGeometry width="50" height="50" relative="1" as="geometry">
            <mxPoint x="148" y="864" as="sourcePoint" />
            <mxPoint x="806" y="864" as="targetPoint" />
          </mxGeometry>
        </mxCell>
        <mxCell id="GL996E9YZMnouKgxVXlB-67" value="访问 SSO，带 SSO 域 Cookie" style="edgeLabel;html=1;align=center;verticalAlign=middle;resizable=0;points=[];" vertex="1" connectable="0" parent="GL996E9YZMnouKgxVXlB-66">
          <mxGeometry x="-0.3204" y="-1" relative="1" as="geometry">
            <mxPoint x="108" y="-2" as="offset" />
          </mxGeometry>
        </mxCell>
        <mxCell id="GL996E9YZMnouKgxVXlB-68" value="" style="endArrow=classic;html=1;rounded=0;" edge="1" parent="1">
          <mxGeometry width="50" height="50" relative="1" as="geometry">
            <mxPoint x="820" y="874" as="sourcePoint" />
            <mxPoint x="820" y="898" as="targetPoint" />
            <Array as="points">
              <mxPoint x="850" y="874" />
              <mxPoint x="850" y="891" />
              <mxPoint x="850" y="898" />
              <mxPoint x="840" y="898" />
            </Array>
          </mxGeometry>
        </mxCell>
        <mxCell id="GL996E9YZMnouKgxVXlB-69" value="Cookie 有效" style="edgeLabel;html=1;align=center;verticalAlign=middle;resizable=0;points=[];" vertex="1" connectable="0" parent="GL996E9YZMnouKgxVXlB-68">
          <mxGeometry x="-0.0168" y="-1" relative="1" as="geometry">
            <mxPoint x="39" as="offset" />
          </mxGeometry>
        </mxCell>
        <mxCell id="GL996E9YZMnouKgxVXlB-70" value="" style="endArrow=classic;html=1;rounded=0;dashed=1;dashPattern=8 8;" edge="1" parent="1">
          <mxGeometry width="50" height="50" relative="1" as="geometry">
            <mxPoint x="808" y="903" as="sourcePoint" />
            <mxPoint x="148" y="903" as="targetPoint" />
          </mxGeometry>
        </mxCell>
        <mxCell id="GL996E9YZMnouKgxVXlB-71" value="URL 带 code 重定向到系统A Callback&lt;div&gt;种 SSO 域 Cookie&lt;/div&gt;" style="edgeLabel;html=1;align=center;verticalAlign=middle;resizable=0;points=[];" vertex="1" connectable="0" parent="GL996E9YZMnouKgxVXlB-70">
          <mxGeometry x="-0.3204" y="-1" relative="1" as="geometry">
            <mxPoint x="-104" as="offset" />
          </mxGeometry>
        </mxCell>
        <mxCell id="GL996E9YZMnouKgxVXlB-72" value="" style="endArrow=classic;html=1;rounded=0;" edge="1" parent="1">
          <mxGeometry width="50" height="50" relative="1" as="geometry">
            <mxPoint x="148" y="970" as="sourcePoint" />
            <mxPoint x="582" y="970" as="targetPoint" />
          </mxGeometry>
        </mxCell>
        <mxCell id="GL996E9YZMnouKgxVXlB-73" value="访问系统B Callback，带 code" style="edgeLabel;html=1;align=center;verticalAlign=middle;resizable=0;points=[];" vertex="1" connectable="0" parent="GL996E9YZMnouKgxVXlB-72">
          <mxGeometry x="-0.3204" y="-1" relative="1" as="geometry">
            <mxPoint x="185" y="-1" as="offset" />
          </mxGeometry>
        </mxCell>
        <mxCell id="GL996E9YZMnouKgxVXlB-74" value="" style="endArrow=classic;html=1;rounded=0;" edge="1" parent="1">
          <mxGeometry width="50" height="50" relative="1" as="geometry">
            <mxPoint x="588" y="987" as="sourcePoint" />
            <mxPoint x="802" y="987" as="targetPoint" />
          </mxGeometry>
        </mxCell>
        <mxCell id="GL996E9YZMnouKgxVXlB-75" value="校验 code" style="edgeLabel;html=1;align=center;verticalAlign=middle;resizable=0;points=[];" vertex="1" connectable="0" parent="GL996E9YZMnouKgxVXlB-74">
          <mxGeometry x="-0.3204" y="-1" relative="1" as="geometry">
            <mxPoint x="49" y="-1" as="offset" />
          </mxGeometry>
        </mxCell>
        <mxCell id="GL996E9YZMnouKgxVXlB-76" value="" style="endArrow=classic;html=1;rounded=0;dashed=1;dashPattern=8 8;" edge="1" parent="1">
          <mxGeometry width="50" height="50" relative="1" as="geometry">
            <mxPoint x="808" y="1022" as="sourcePoint" />
            <mxPoint x="590" y="1022" as="targetPoint" />
          </mxGeometry>
        </mxCell>
        <mxCell id="GL996E9YZMnouKgxVXlB-77" value="换取 ticket" style="edgeLabel;html=1;align=center;verticalAlign=middle;resizable=0;points=[];" vertex="1" connectable="0" parent="GL996E9YZMnouKgxVXlB-76">
          <mxGeometry x="-0.3204" y="-1" relative="1" as="geometry">
            <mxPoint x="-24" as="offset" />
          </mxGeometry>
        </mxCell>
        <mxCell id="GL996E9YZMnouKgxVXlB-78" value="" style="endArrow=classic;html=1;rounded=0;dashed=1;dashPattern=8 8;" edge="1" parent="1">
          <mxGeometry width="50" height="50" relative="1" as="geometry">
            <mxPoint x="588" y="1047" as="sourcePoint" />
            <mxPoint x="148" y="1047" as="targetPoint" />
          </mxGeometry>
        </mxCell>
        <mxCell id="GL996E9YZMnouKgxVXlB-79" value="重定向到系统B页面&lt;div&gt;&lt;span style=&quot;background-color: light-dark(#ffffff, var(--ge-dark-color, #121212)); color: light-dark(rgb(0, 0, 0), rgb(255, 255, 255));&quot;&gt;种B域 cookie（ticket）&lt;/span&gt;&lt;/div&gt;" style="edgeLabel;html=1;align=center;verticalAlign=middle;resizable=0;points=[];" vertex="1" connectable="0" parent="GL996E9YZMnouKgxVXlB-78">
          <mxGeometry x="-0.3204" y="-1" relative="1" as="geometry">
            <mxPoint x="41" as="offset" />
          </mxGeometry>
        </mxCell>
        <mxCell id="GL996E9YZMnouKgxVXlB-80" value="" style="endArrow=classic;html=1;rounded=0;" edge="1" parent="1">
          <mxGeometry width="50" height="50" relative="1" as="geometry">
            <mxPoint x="823" y="995" as="sourcePoint" />
            <mxPoint x="823" y="1018" as="targetPoint" />
            <Array as="points">
              <mxPoint x="853" y="995" />
              <mxPoint x="853" y="1012" />
              <mxPoint x="853" y="1018" />
              <mxPoint x="850" y="1018" />
              <mxPoint x="843" y="1018" />
            </Array>
          </mxGeometry>
        </mxCell>
        <mxCell id="GL996E9YZMnouKgxVXlB-81" value="校验 code 通过" style="edgeLabel;html=1;align=center;verticalAlign=middle;resizable=0;points=[];" vertex="1" connectable="0" parent="GL996E9YZMnouKgxVXlB-80">
          <mxGeometry x="-0.0168" y="-1" relative="1" as="geometry">
            <mxPoint x="48" as="offset" />
          </mxGeometry>
        </mxCell>
        <mxCell id="GL996E9YZMnouKgxVXlB-82" value="" style="endArrow=classic;html=1;rounded=0;" edge="1" parent="1">
          <mxGeometry width="50" height="50" relative="1" as="geometry">
            <mxPoint x="148" y="1107" as="sourcePoint" />
            <mxPoint x="370" y="1107" as="targetPoint" />
          </mxGeometry>
        </mxCell>
        <mxCell id="GL996E9YZMnouKgxVXlB-83" value="访问系统A，带 A 域 cookie（ticket）" style="edgeLabel;html=1;align=center;verticalAlign=middle;resizable=0;points=[];" vertex="1" connectable="0" parent="GL996E9YZMnouKgxVXlB-82">
          <mxGeometry x="-0.3204" y="-1" relative="1" as="geometry">
            <mxPoint x="32" y="-1" as="offset" />
          </mxGeometry>
        </mxCell>
        <mxCell id="GL996E9YZMnouKgxVXlB-84" value="" style="endArrow=classic;html=1;rounded=0;" edge="1" parent="1">
          <mxGeometry width="50" height="50" relative="1" as="geometry">
            <mxPoint x="372" y="1122" as="sourcePoint" />
            <mxPoint x="804" y="1122" as="targetPoint" />
          </mxGeometry>
        </mxCell>
        <mxCell id="GL996E9YZMnouKgxVXlB-85" value="校验 ticket" style="edgeLabel;html=1;align=center;verticalAlign=middle;resizable=0;points=[];" vertex="1" connectable="0" parent="GL996E9YZMnouKgxVXlB-84">
          <mxGeometry x="-0.3204" y="-1" relative="1" as="geometry">
            <mxPoint x="-33" y="-1" as="offset" />
          </mxGeometry>
        </mxCell>
        <mxCell id="GL996E9YZMnouKgxVXlB-86" value="" style="endArrow=classic;html=1;rounded=0;dashed=1;dashPattern=8 8;" edge="1" parent="1">
          <mxGeometry width="50" height="50" relative="1" as="geometry">
            <mxPoint x="808" y="1157" as="sourcePoint" />
            <mxPoint x="376" y="1157" as="targetPoint" />
          </mxGeometry>
        </mxCell>
        <mxCell id="GL996E9YZMnouKgxVXlB-87" value="" style="endArrow=classic;html=1;rounded=0;" edge="1" parent="1">
          <mxGeometry width="50" height="50" relative="1" as="geometry">
            <mxPoint x="823" y="1130" as="sourcePoint" />
            <mxPoint x="823" y="1153" as="targetPoint" />
            <Array as="points">
              <mxPoint x="853" y="1130" />
              <mxPoint x="853" y="1147" />
              <mxPoint x="853" y="1153" />
              <mxPoint x="850" y="1153" />
              <mxPoint x="843" y="1153" />
            </Array>
          </mxGeometry>
        </mxCell>
        <mxCell id="GL996E9YZMnouKgxVXlB-88" value="校验 ticket 通过" style="edgeLabel;html=1;align=center;verticalAlign=middle;resizable=0;points=[];" vertex="1" connectable="0" parent="GL996E9YZMnouKgxVXlB-87">
          <mxGeometry x="-0.0168" y="-1" relative="1" as="geometry">
            <mxPoint x="48" as="offset" />
          </mxGeometry>
        </mxCell>
        <mxCell id="GL996E9YZMnouKgxVXlB-89" value="" style="endArrow=classic;html=1;rounded=0;" edge="1" parent="1">
          <mxGeometry width="50" height="50" relative="1" as="geometry">
            <mxPoint x="378" y="1172" as="sourcePoint" />
            <mxPoint x="378" y="1212" as="targetPoint" />
            <Array as="points">
              <mxPoint x="398" y="1172" />
              <mxPoint x="398" y="1192" />
              <mxPoint x="398" y="1212" />
            </Array>
          </mxGeometry>
        </mxCell>
        <mxCell id="GL996E9YZMnouKgxVXlB-90" value="凭证有效，处理业务" style="edgeLabel;html=1;align=center;verticalAlign=middle;resizable=0;points=[];" vertex="1" connectable="0" parent="GL996E9YZMnouKgxVXlB-89">
          <mxGeometry x="-0.0168" y="-1" relative="1" as="geometry">
            <mxPoint x="58" as="offset" />
          </mxGeometry>
        </mxCell>
        <mxCell id="GL996E9YZMnouKgxVXlB-91" value="" style="endArrow=classic;html=1;rounded=0;dashed=1;dashPattern=8 8;" edge="1" parent="1">
          <mxGeometry width="50" height="50" relative="1" as="geometry">
            <mxPoint x="370" y="1229" as="sourcePoint" />
            <mxPoint x="150" y="1229" as="targetPoint" />
          </mxGeometry>
        </mxCell>
        <mxCell id="GL996E9YZMnouKgxVXlB-92" value="业务返回" style="edgeLabel;html=1;align=center;verticalAlign=middle;resizable=0;points=[];" vertex="1" connectable="0" parent="GL996E9YZMnouKgxVXlB-91">
          <mxGeometry x="-0.3204" y="-1" relative="1" as="geometry">
            <mxPoint x="-40" as="offset" />
          </mxGeometry>
        </mxCell>
      </root>
    </mxGraphModel>
  </diagram>
</mxfile>
